<svg width="32" height="32" viewBox="0 0 32 32" fill="none" xmlns="http://www.w3.org/2000/svg">
<path d="M0.169922 16.0033C0.171764 23.7923 5.83573 30.4243 13.5285 31.645V20.5791H9.51159V16.0033H13.5333V12.5199C13.3535 10.8694 13.9172 9.22438 15.0717 8.03109C16.2261 6.83779 17.8516 6.21988 19.5072 6.34495C20.6955 6.36414 21.8809 6.46997 23.0538 6.66161V10.555H21.0525C20.3635 10.4648 19.6708 10.6923 19.1696 11.1736C18.6683 11.6548 18.4127 12.3377 18.4748 13.0298V16.0033H22.8623L22.1608 20.5807H18.4748V31.645C26.7944 30.3302 32.6284 22.7321 31.7503 14.3551C30.8722 5.9782 23.5895 -0.245001 15.1781 0.193977C6.76666 0.632955 0.171259 7.58043 0.169922 16.0033Z" fill="#54CA78"/>
</svg>
