<svg width="30" height="30" viewBox="0 0 30 30" fill="none" xmlns="http://www.w3.org/2000/svg">
<path d="M15.0032 29.3148C11.1082 29.3148 10.649 29.2942 9.12901 29.2277C7.94368 29.1888 6.77369 28.9478 5.66942 28.5152C3.75883 27.7717 2.24806 26.2604 1.50526 24.3495C1.08933 23.2412 0.864985 22.0703 0.84184 20.8867C0.753174 19.3699 0.753174 18.8727 0.753174 15.0078C0.753174 11.1017 0.773757 10.6457 0.84184 9.13365C0.865492 7.95172 1.08982 6.78241 1.50526 5.67565C2.24726 3.76223 3.76048 2.24959 5.67417 1.50831C6.78036 1.09063 7.94997 0.865708 9.13217 0.843313C10.6443 0.757812 11.1414 0.757812 15.0032 0.757812C18.9298 0.757812 19.3811 0.778396 20.8773 0.843313C22.0626 0.865901 23.2353 1.0908 24.3448 1.50831C26.258 2.25043 27.7709 3.76278 28.5138 5.67565C28.9367 6.79854 29.1622 7.98613 29.1803 9.1859C29.269 10.7027 29.269 11.1983 29.269 15.0616C29.269 18.925 29.2468 19.4316 29.1803 20.9311C29.1568 22.1157 28.9319 23.2877 28.5153 24.397C27.7706 26.3092 26.2576 27.8211 24.3448 28.5643C23.2369 28.9794 22.0666 29.2038 20.8837 29.2277C19.3716 29.3148 18.876 29.3148 15.0032 29.3148ZM14.9493 3.26423C11.0765 3.26423 10.6743 3.28323 9.16226 3.35131C8.25973 3.36327 7.36593 3.52982 6.51967 3.84373C5.27003 4.32191 4.2812 5.30672 3.79792 6.5544C3.48159 7.40987 3.31502 8.31345 3.30551 9.22548C3.22159 10.7597 3.22159 11.1619 3.22159 15.0078C3.22159 18.8078 3.23584 19.2686 3.30551 20.7933C3.31968 21.6961 3.48616 22.5901 3.79792 23.4375C4.28191 24.6843 5.27057 25.6684 6.51967 26.1466C7.36536 26.4626 8.25952 26.6292 9.16226 26.639C10.6949 26.7276 11.0987 26.7276 14.9493 26.7276C18.8333 26.7276 19.2354 26.7086 20.7348 26.639C21.638 26.628 22.5325 26.4614 23.379 26.1466C24.6211 25.6643 25.6035 24.6824 26.0865 23.4406C26.4022 22.5845 26.5688 21.6805 26.5789 20.768H26.5963C26.6644 19.2543 26.6644 18.8506 26.6644 14.9825C26.6644 11.1144 26.647 10.7075 26.5789 9.1954C26.5647 8.29361 26.3982 7.40071 26.0865 6.5544C25.6046 5.3108 24.622 4.32711 23.379 3.84373C22.5326 3.52824 21.638 3.36164 20.7348 3.35131C19.2038 3.26423 18.8032 3.26423 14.9493 3.26423ZM15.0032 22.3212C12.0423 22.3232 9.37192 20.5411 8.23737 17.8063C7.10283 15.0714 7.72761 11.9224 9.82034 9.82788C11.9131 7.73333 15.0615 7.10582 17.7974 8.238C20.5332 9.37019 22.3175 12.039 22.3182 14.9999C22.3138 19.0391 19.0424 22.3134 15.0032 22.3212ZM15.0032 10.2467C12.3798 10.2467 10.2532 12.3734 10.2532 14.9967C10.2532 17.6201 12.3798 19.7467 15.0032 19.7467C17.6265 19.7467 19.7532 17.6201 19.7532 14.9967C19.7471 12.3759 17.624 10.2528 15.0032 10.2467ZM22.6032 9.11782C21.6618 9.11432 20.9009 8.34924 20.9027 7.40783C20.9044 6.46641 21.6681 5.70416 22.6095 5.70416C23.5509 5.70416 24.3146 6.46639 24.3163 7.40781C24.3168 7.86201 24.1363 8.29768 23.8148 8.61855C23.4934 8.93942 23.0574 9.11908 22.6032 9.11782Z" fill="#54CA78"/>
</svg>
