<svg width="35" height="28" viewBox="0 0 35 28" fill="none" xmlns="http://www.w3.org/2000/svg">
<path d="M30.4919 4.58923C31.9486 3.74071 33.0386 2.40461 33.5583 0.830401C32.1895 1.62175 30.6918 2.17921 29.1301 2.47865C26.965 0.246986 23.5345 -0.2961 20.7555 1.15286C17.9766 2.60181 16.5372 5.68409 17.2416 8.6774C11.6348 8.40313 6.41097 5.82252 2.87015 1.57773C1.02227 4.68332 1.96657 8.65331 5.02815 10.6502C3.92105 10.6156 2.83851 10.3235 1.87078 9.7984C1.87078 9.8269 1.87078 9.8554 1.87078 9.8839C1.87142 13.1189 4.21138 15.9054 7.46565 16.5466C6.43875 16.8188 5.36161 16.8589 4.3164 16.6637C5.2316 19.4302 7.84842 21.3255 10.831 21.3821C8.36075 23.2712 5.31005 24.2957 2.16978 24.2907C1.61317 24.2914 1.05699 24.2602 0.50415 24.1972C3.69303 26.1939 7.4045 27.2536 11.195 27.2499C16.4686 27.2852 21.5366 25.2595 25.2655 21.6259C28.9943 17.9924 31.0729 13.0541 31.0363 7.91582C31.0363 7.62132 31.0292 7.3284 31.0151 7.03707C32.3809 6.07535 33.5596 4.88397 34.4959 3.5189C33.2235 4.06842 31.8739 4.4292 30.4919 4.58923Z" fill="#54CA78"/>
</svg>
