<svg width="32" height="24" viewBox="0 0 32 24" fill="none" xmlns="http://www.w3.org/2000/svg">
<path d="M16.0096 23.1024H15.9779C15.8798 23.1024 6.05834 23.0834 3.58042 22.4105C2.21784 22.0434 1.15372 20.9787 0.787422 19.6159C0.341837 17.1022 0.126666 14.553 0.144588 12.0001C0.133076 9.44302 0.354069 6.89021 0.804838 4.37316C1.18121 3.00914 2.24065 1.9395 3.601 1.55008C6.01084 0.916748 15.5615 0.916748 15.9668 0.916748H16.0001C16.0998 0.916748 25.9466 0.935748 28.3992 1.60866C29.7589 1.9776 30.8208 3.04015 31.189 4.40008C31.6488 6.92319 31.8646 9.4847 31.8334 12.0492C31.8445 14.6031 31.623 17.1528 31.1716 19.6666C30.8006 21.0277 29.7358 22.0901 28.3738 22.458C25.9672 23.0961 16.4149 23.1024 16.0096 23.1024ZM12.8429 7.258L12.835 16.758L21.0873 12.008L12.8429 7.258Z" fill="#54CA78"/>
</svg>
